<svg xmlns="http://www.w3.org/2000/svg" xml:space="preserve" viewBox="0 0 193.662 258.471"><path fill="#D2D4D3" d="M135.52 162.67c-.971-.219.6-1.699.479-2.639 7.95.049 15.44-5.931 24.24-5.521-.18 1.08-1.4.67-2.16.96-1.79.67-3.21 1.37-5.76 1.92-5.79 1.25-11.21 3.54-16.8 5.28z"/><path fill="#D2D4D3" d="M102.88 125.71c-3.09.25-5.2-1.06-8.16-1.44 7.841-2.48 15.601-1.45 22.801-2.88 5.46-2.72 10.859-4.67 17.52-5.52 4.35-.56 8.11-.78 12.48 1.68 6.069 3.41 8.35 9.46 11.52 16.08 1.23 2.58 2.79 5.1 3.84 7.68 2.33 5.73 3.47 11.62 5.28 17.04 1.39 4.149 3.35 7.72 5.04 12.24 1.47 3.93 2.68 8.159 4.08 12.479.64 1.98 1.55 3.76 2.399 5.76 3.46 8.181 5.79 16.73 8.4 24.24 1.2 3.461 3.3 6.381 3.6 9.84-2.17.76-3.05-1.93-3.84-3.6-6.26-13.23-11.14-30.71-16.319-43.199-4.98-8.781-8.561-20.601-12.48-30.48-1.2-3.03-2.85-5.721-4.08-8.641-.51-1.209-.45-2.59-.96-3.84-1.97-4.87-5.61-8.72-8.88-12.48-2.62-.4-6.22-3.37-8.4-1.2 1.12 1.32 2.851 1.99 3.601 3.36 4.06 7.4-.51 21.339-3.12 29.281-1.59 4.85-3.71 9.119-5.04 13.92-1.99 7.17-4.311 13.81-6.24 20.879-3.729 13.65-8.189 28.84-12.24 41.521-.22 5.271-2.88 10.97-4.08 16.319-.5 2.24-.81 3.931-1.68 6.48-.81 2.36-1.17 5.37-3.359 5.28-.41-5.39 1.71-10.64 2.88-16.08 1.01-4.72 2.029-9.53 3.359-14.399 2.23-8.15 4.141-16.561 6.721-24.48 5.42-16.641 8.8-33.051 14.64-49.92 2.25-6.5 4.689-13.11 5.52-20.16.7-6-1.81-10.4-7.199-10.8-.87.01-.62 1.14-1.2 1.44-6.03 1.26-11.4.86-16.8 1.68-3.29.5-6.43 1.67-9.6 1.92zm-42.964 8.16c.76-2.58-.99-3.24-1.92-4.561-1.39-1.97-1.85-4.9-2.4-6.96 2.22-.37 1.37.86 1.92 2.16 2.76 3.62 5.43 10.01 7.44 14.88 3.37 8.18 7.11 16.439 10.08 25.439.78 2.36 1.34 4.711 2.16 6.961.76 2.08 2.189 3.729 3.12 5.76 1.109 2.41 1.39 5.25 2.399 7.68 1.051 2.54 2.521 4.58 3.12 7.2-.04.28.05.431.24.479-.18.541-1.35.09-1.92.24-1.79-3.68-2.88-7.48-4.32-11.279-1.56-4.11-4.24-7.721-6-11.76-2.02-4.631-3.149-9.99-4.56-14.881-2.189-7.57-5.869-14.64-9.359-21.36zm-26.64 3.84c.19-.53.5-.94.48-1.68 7.29-1.111 16.89-5.041 23.28-4.32-4.06 2.01-8.75 2.229-13.2 3.359-2.84.721-6.41 1.99-9.84 2.641h-.72z"/><path fill="#D47B3A" d="M31.356 107.47c-3.24-.92-6.44-1.88-9.36-3.12 2.78-1.05 6.26-.84 9.6-1.44 9.8-1.75 18.54-5.58 26.88-9.36 1.19-.17 1.28-.19 2.16.24 4.26-3.39 9.23-5.34 13.2-8.88 4.69-4.19 7.03-10.12 10.561-15.6 1.51-3.97 3.04-8.11 4.56-12.72.64-1.93 1.96-3.54 2.88-5.52 2.311-4.95 3.5-10.37 5.28-15.36 2.18-6.09 5.83-12.02 9.12-17.52 2.82-4.71 5.33-9.72 10.56-12.24 3.62-1.75 9.67-1.99 14.641-2.4 5-.41 10.319-1.35 14.88-.96 5.29.45 13.2 1.93 17.04 4.32 1.67 1.21 1.87 3.89 2.88 5.76-.44 8.12-2.42 16.22-1.92 24.72.319 5.4 1.359 10.83 1.439 16.32.181 11.49.141 25.78-1.92 37.2-.54 3-2.17 6.83-3.84 9.12-2.96 4.05-6.64 6.19-11.76 8.4-1.41.61-2.7 1.65-4.08 2.4-3.05 1.65-6.94 2.51-10.8 3.12-7.98 1.27-13.95 5.4-21.36 6.24-3.189.36-6.84.08-10.32.48-3.569.41-7.199 1.5-10.319 1.68-2.7.16-5.03-.64-7.681-.96-6.25-.75-13.27-.49-19.919-.72-4.45-.16-9.26-.52-13.92-.96-5.14-.48-10.44-.12-15.12-.96-7.07-1.26-13.97-3.5-19.68-6.48-.53-3.93 2.08-6.84 5.76-7.92 3.14 2.3 7.63 3.25 11.28 5.04 2.63-.36 5.25 1.11 8.64 1.44 1.26.12 2.89-.14 4.32 0 3.96.39 8.02 1.76 12.24 2.4 22.89 3.48 50.88 3.58 72.96-3.6 10.93-3.55 21.899-6.68 26.399-16.56 2.421-5.31 4.601-11.76 4.32-17.52-.24-4.9-1.46-10.9-1.439-17.28.04-11.83-1.101-23.28-1.2-35.76-1.641 9.24-.65 20.98-.48 30.96.061 3.89.2 7.81.48 11.52.26 3.45.95 6.8 1.2 10.08.5 6.45-1.921 13.05-4.32 18-4.61 9.53-17.68 13.5-29.28 16.56-2.81.74-5.54 1.91-8.16 2.4-2.979.55-6.34.55-9.6.96-12.73 1.59-28.59 2.06-44.4-.24-5.75-.84-11.35-2.03-17.04-2.88-5.93-.89-14.66.22-15.84-5.76-.434.76.416 2.3.476 3.36z"/><path fill="#D2D4D3" d="M3.996 218.83c-.61.181-1.36.24-1.68.721-.2.04-.23-.09-.24-.24-.2.04-.23-.09-.24-.24-.04-3.47 2.61-6.199 3.6-9.359.33-1.041.18-2.11.48-3.12.53-1.75 1.69-3.32 2.16-5.04 1.25-4.54 1.86-8.84 3.12-12.96 1.14-3.72 3.34-6.841 4.8-10.56 1.47-3.75 2.41-7.711 4.08-11.521 1.59-3.61 3-7.53 4.32-11.28 1.36-3.859 2.93-7.63 4.08-11.52 1.88-6.32 3.47-12.721 5.28-18.24.57-1.74.5-5.02 4.08-4.32-1.21 2.62-2.26 5.45-3.36 8.4-1.09 2.91-2.73 5.77-3.6 8.64-1.04 3.421-1.61 6.9-2.64 10.32-1.9 6.31-5.35 12.79-7.68 19.2-1.25 3.459-1.8 6.959-2.88 10.56-1.32 4.37-3.37 8.591-4.8 12.96-3.05 9.3-4.99 18.91-8.88 27.6z"/><path d="M141.28 121.15c5.92 10.68-1.17 26.061-4.561 37.2 8.16-1.26 13.7-4.96 22.561-6-1.94-7.2-5.98-15.431-9.36-21.84-.18-.351.19-.591 0-.96-1.76-3.39-5.82-7.84-8.64-8.4zm-5.76 41.52c5.59-1.739 11.01-4.029 16.8-5.279 2.55-.55 3.97-1.25 5.76-1.92.76-.29 1.98.12 2.16-.96-8.8-.41-16.29 5.569-24.24 5.521.12.94-1.45 2.42-.48 2.64zm-18-41.28c-7.2 1.43-14.96.4-22.801 2.88 2.96.38 5.07 1.69 8.16 1.44 3.17-.25 6.311-1.42 9.601-1.92 5.399-.82 10.77-.42 16.8-1.68.58-.3.33-1.43 1.2-1.44 5.39.4 7.899 4.8 7.199 10.8-.83 7.05-3.27 13.66-5.52 20.16-5.84 16.869-9.22 33.279-14.64 49.92-2.58 7.92-4.49 16.33-6.721 24.48-1.33 4.869-2.35 9.68-3.359 14.399-1.17 5.44-3.29 10.69-2.88 16.08 2.189.09 2.55-2.92 3.359-5.28.87-2.55 1.18-4.24 1.68-6.48 1.2-5.35 3.86-11.049 4.08-16.319 4.051-12.681 8.511-27.87 12.24-41.521 1.93-7.069 4.25-13.709 6.24-20.879 1.33-4.801 3.45-9.07 5.04-13.92 2.61-7.941 7.18-21.881 3.12-29.281-.75-1.37-2.48-2.04-3.601-3.36 2.181-2.17 5.78.8 8.4 1.2 3.27 3.76 6.91 7.61 8.88 12.48.51 1.25.45 2.631.96 3.84 1.23 2.92 2.88 5.61 4.08 8.641 3.92 9.88 7.5 21.699 12.48 30.48 5.18 12.489 10.06 29.969 16.319 43.199.79 1.67 1.67 4.359 3.84 3.6-.3-3.459-2.399-6.379-3.6-9.84-2.61-7.51-4.94-16.06-8.4-24.24-.85-2-1.76-3.779-2.399-5.76-1.4-4.32-2.61-8.55-4.08-12.479-1.69-4.521-3.65-8.091-5.04-12.24-1.811-5.42-2.95-11.31-5.28-17.04-1.05-2.58-2.609-5.1-3.84-7.68-3.17-6.62-5.45-12.67-11.52-16.08-4.37-2.46-8.131-2.24-12.48-1.68-6.66.85-12.06 2.8-17.52 5.52zm-52.564 18c-2.01-4.87-4.68-11.26-7.44-14.88-.55-1.3.3-2.53-1.92-2.16.55 2.06 1.01 4.99 2.4 6.96.93 1.32 2.68 1.98 1.92 4.561 3.49 6.72 7.17 13.789 9.36 21.359 1.41 4.891 2.54 10.25 4.56 14.881 1.76 4.039 4.44 7.649 6 11.76 1.44 3.799 2.53 7.6 4.32 11.279.57-.15 1.74.301 1.92-.24-.19-.049-.28-.199-.24-.479-.6-2.62-2.069-4.66-3.12-7.2-1.01-2.43-1.29-5.27-2.399-7.68-.931-2.03-2.36-3.68-3.12-5.76-.82-2.25-1.38-4.601-2.16-6.961-2.971-9-6.711-17.26-10.081-25.44zm-29.28-5.04c2.78-1.95 5.69-1.54 9.12-2.16 2.09-.38 4.1-1.79 6.48-2.159 1.63-.25 3.32.489 4.8-.721-1.18-2.26-1.76-5.12-3.12-7.2-5.19-.45-9.03-.59-13.44-.72-1.07 1.79-1.45 3.99-2.16 6.24-.76 2.4-2.99 4.64-2.16 6.72h.48zm21.36-2.64c-6.39-.721-15.99 3.209-23.28 4.32.02.739-.29 1.149-.48 1.68h.72c3.43-.65 7-1.92 9.84-2.641 4.45-1.13 9.14-1.35 13.2-3.36zm-24.96-22.32c-3.65-1.79-8.14-2.74-11.28-5.04-3.68 1.08-6.29 3.99-5.76 7.92 5.71 2.98 12.61 5.22 19.68 6.48 4.68.84 9.98.48 15.12.96 4.66.44 9.47.8 13.92.96 6.65.23 13.669-.03 19.919.72 2.65.32 4.98 1.12 7.681.96 3.12-.18 6.75-1.27 10.319-1.68 3.48-.4 7.131-.12 10.32-.48 7.41-.84 13.38-4.97 21.36-6.24 3.859-.61 7.75-1.47 10.8-3.12 1.38-.75 2.67-1.79 4.08-2.4 5.12-2.21 8.8-4.35 11.76-8.4 1.67-2.29 3.3-6.12 3.84-9.12 2.061-11.42 2.101-25.71 1.92-37.2-.08-5.49-1.12-10.92-1.439-16.32-.5-8.5 1.479-16.6 1.92-24.72-1.01-1.87-1.21-4.55-2.88-5.76-3.84-2.39-11.75-3.87-17.04-4.32-4.561-.39-9.88.55-14.88.96-4.971.41-11.021.65-14.641 2.4-5.229 2.52-7.739 7.53-10.56 12.24-3.29 5.5-6.94 11.43-9.12 17.52-1.78 4.99-2.97 10.41-5.28 15.36-.92 1.98-2.24 3.59-2.88 5.52-1.52 4.61-3.05 8.75-4.56 12.72-3.53 5.48-5.87 11.41-10.561 15.6-3.97 3.54-8.94 5.49-13.2 8.88-.88-.43-.97-.41-2.16-.24-8.34 3.78-17.08 7.61-26.88 9.36-3.34.6-6.82.39-9.6 1.44 2.92 1.24 6.12 2.2 9.36 3.12-.06-1.06-.91-2.6-.48-3.36 1.18 5.98 9.91 4.87 15.84 5.76 5.69.85 11.29 2.04 17.04 2.88 15.81 2.3 31.669 1.83 44.4.24 3.26-.41 6.62-.41 9.6-.96 2.62-.49 5.351-1.66 8.16-2.4 11.601-3.06 24.67-7.03 29.28-16.56 2.399-4.95 4.82-11.55 4.32-18-.25-3.28-.94-6.63-1.2-10.08-.28-3.71-.42-7.63-.48-11.52-.17-9.98-1.16-21.72.48-30.96.1 12.48 1.24 23.93 1.2 35.76-.021 6.38 1.199 12.38 1.439 17.28.28 5.76-1.899 12.21-4.32 17.52-4.5 9.88-15.47 13.01-26.399 16.56-22.08 7.18-50.07 7.08-72.96 3.6-4.22-.64-8.28-2.01-12.24-2.4-1.43-.14-3.06.12-4.32 0-3.394-.33-6.014-1.8-8.644-1.44zM2.316 219.55c.32-.48 1.07-.54 1.68-.721 3.89-8.689 5.83-18.299 8.88-27.6 1.43-4.369 3.48-8.59 4.8-12.96 1.08-3.601 1.63-7.101 2.88-10.56 2.33-6.41 5.78-12.891 7.68-19.2 1.03-3.42 1.6-6.899 2.64-10.32.87-2.87 2.51-5.729 3.6-8.64 1.1-2.95 2.15-5.78 3.36-8.4-3.58-.7-3.51 2.58-4.08 4.32-1.81 5.52-3.4 11.92-5.28 18.24-1.15 3.89-2.72 7.66-4.08 11.52-1.32 3.75-2.73 7.67-4.32 11.28-1.67 3.81-2.61 7.771-4.08 11.521-1.46 3.719-3.66 6.84-4.8 10.56-1.26 4.12-1.87 8.42-3.12 12.96-.47 1.72-1.63 3.29-2.16 5.04-.3 1.01-.15 2.079-.48 3.12-.99 3.16-3.64 5.89-3.6 9.359.01.15.04.28.24.24.01.15.04.28.24.24zm9.36-19.68c-2.04 6.879-3.21 14.069-6.48 20.64-2.12.04-3.14 1.14-5.04.239-1.05-5.219 3.53-8.51 3.84-13.92 3.63-6.609 3.18-14.56 6.72-22.08 2.78-5.899 5.41-12.619 8.16-19.439 1.71-4.24 2.61-8.93 4.32-13.199.47-1.181 1.45-2.181 1.92-3.361 3.6-9.08 4.79-18.789 8.4-27.839-3.83-1.63-9.31-2.04-13.2-3.36-4.43-1.51-8.99-3.44-7.2-9.36 2.17-7.19 11.44-6.48 18.72-7.92 11.5-2.27 21.74-7.56 31.68-10.8 11-6.21 18.22-17.85 22.56-31.44 1.06-3.31 2.58-6.09 3.84-9.12 3.97-9.55 6.23-19.5 11.28-27.84.82-1.35 1.84-2.53 2.64-3.84 2.87-4.72 5.391-9.11 9.84-12.48 3.65-1.87 7.561-2.31 11.761-3.84 6.609 1.07 14.819-1.62 22.8-.72.95.11 1.91.73 3.12.96 1.279.24 2.7-.14 4.08 0 8.01.8 12.92 5.03 12.72 12.96-.021.78.27 1.67.24 2.4-.2 4.39-1.54 9.31-1.92 13.44-.65 7.05 1.5 15.94 1.439 24.96-.04 6.46-.01 12.05 0 18.72.01 8.71-1.22 19.4-4.32 25.2-4.199 7.84-12.85 11.56-20.64 15.12 5.72 1.97 11.14 5.32 14.16 10.56 1.27 2.2 1.99 5 3.12 7.68 1.01 2.4 2.55 4.8 3.6 7.2 2.28 5.2 3.23 11 5.76 15.359.181.74-.829.291-.479 1.201 5.02 11.319 8.43 23.049 12.72 34.08 3.15 8.08 5.45 16.869 9.36 25.68 1.149 2.6 2.82 5.43 2.399 8.4-1.399.569-1.85.809-3.6 1.199-.95-.25-.97-1.43-2.16-1.439-7.45-16.33-12.63-34.08-19.92-50.641-2.46-5.58-4.729-11.16-6.72-16.8-2.4.21-4.14 2.14-6.24 2.64-3.51.83-6.75.91-9.84 1.92-3.34 1.09-6.271 3.16-10.32 3.121-4.3 14.799-9.529 29.27-13.439 44.399-.811 3.12-1.641 6.26-2.641 9.36-.92 2.83-2.27 5.799-2.88 8.64-.47 2.149-.569 4.149-1.2 6.239-1.189 3.99-2.35 8.211-3.359 12.48-1.04 4.4-2.271 8.92-4.561 12.96-2.239.591-5.14.36-6-1.68.351-1.149 1.181-.33 1.92 0 .29-3.54.75-7.75 1.681-11.761 3.47-14.989 8.279-31.109 12.479-45.84.67-2.34.98-4.85 1.681-7.199.64-2.141 1.869-4.11 2.399-6.24 2.771-11.13 5.97-21.87 9.12-32.4 1.07-3.58 2.84-6.91 3.6-10.32.5-2.26.53-4.449.961-6.479.8-3.76 2.829-9.97-1.681-13.44-5.72 1.68-11.71 1.68-18 2.16-4.83.37-9.13 2.58-13.68 2.4-3.05-.12-5.83-1.77-8.88-1.92-.771-.19-1.11-.81-1.681-1.2-.859-.21-1.859.68-2.159.24-9.511-1.48-20.13-1.91-28.8-1.92 2.74 5.66 5.42 13.46 8.88 19.2.16 2.81 1.39 5.56 2.4 8.16 2.021 5.189 4.45 10.369 6.24 15.84.83 2.539 1.57 5.33 2.64 7.68.811 1.77 1.9 3.33 2.641 5.279 1.33 3.511 2.8 6.801 4.319 10.801.61 1.619 1.891 4.13 0 5.76-1.029-.08-3.239-.46-5.04-1.199.021-2.261-.47-4.011-1.68-5.041-1.43-7.609-6.53-14.15-9.12-22.32-3.6-11.359-7.46-23.56-13.2-32.879-8.02 1.549-17.06 3.899-25.2 5.76-1.81 7.08-4.41 13.73-6.96 20.4-1.25 3.27-3.05 6.35-4.08 9.6-1.09 3.439-1.75 6.9-2.88 10.32-2.184 6.6-4.944 13.1-6.964 19.92z"/></svg>